<?xml version="1.0" standalone="no"?><!DOCTYPE svg PUBLIC "-//W3C//DTD SVG 1.1//EN" "http://www.w3.org/Graphics/SVG/1.1/DTD/svg11.dtd"><svg class="icon" width="200px" height="200.00px" viewBox="0 0 1024 1024" version="1.1" xmlns="http://www.w3.org/2000/svg"><path d="M921.5 342.6L811.7 119c-6.9-19-20.2-34.2-36.7-43.8-16.3-9.4-35.8-13.3-55.6-10L458.7 75.4c-24.5 4.1-45.9 19-58.4 40.5L108.7 621.1c-23 39.9-9.4 90.9 30.5 114l370.2 213.8c39.9 23 90.9 9.4 114-30.5l291.8-505.5c12.4-21.4 14.7-47.1 6.3-70.3zM578.3 892.2c-8.6 14.9-27.8 20.1-42.7 11.5L165.3 689.9c-14.9-8.6-20.1-27.8-11.5-42.7l36.7-63.6 424.4 245-36.6 63.6z m291.8-505.5l-229 396.7-424.4-245 228.8-396.3c4.3-7.4 11.2-12.6 19.4-14.7l256.6-10.1c2.2-0.1 4.4-0.3 6.6-0.7 9.2-1.5 16.4 1.2 20.8 3.8 6.4 3.7 11.3 9.5 13.8 16.4 0.6 1.8 1.4 3.5 2.2 5.2l108.2 220.5c2.4 8.1 1.3 16.8-3 24.2z" fill="#2c2c2c" /><path d="M687.5 223.4c-39.9-23-90.9-9.4-114 30.5-23 39.9-9.4 90.9 30.5 114s90.9 9.4 114-30.5c23.1-40 9.4-91-30.5-114z m-14.6 87.8c-8.6 14.9-27.8 20.1-42.7 11.5-14.9-8.6-20.1-27.8-11.5-42.7 8.6-14.9 27.8-20.1 42.7-11.5 15 8.6 20.1 27.8 11.5 42.7z" fill="#2c2c2c" /></svg>