<?xml version="1.0" standalone="no"?><!DOCTYPE svg PUBLIC "-//W3C//DTD SVG 1.1//EN" "http://www.w3.org/Graphics/SVG/1.1/DTD/svg11.dtd"><svg class="icon" width="200px" height="200.00px" viewBox="0 0 1024 1024" version="1.1" xmlns="http://www.w3.org/2000/svg"><path fill="#0c0b0b" d="M983.04 727.04a40.96 40.96 0 0 0-40.96 40.96v173.592381h-174.08a40.96 40.96 0 1 0 0 82.407619h173.592381A82.407619 82.407619 0 0 0 1024 941.592381v-173.592381a40.96 40.96 0 0 0-40.96-40.96zM941.592381 0h-173.592381a40.96 40.96 0 1 0 0 82.407619h173.592381v173.592381a40.96 40.96 0 1 0 82.407619 0V82.407619A82.407619 82.407619 0 0 0 941.592381 0zM256 941.592381H82.407619v-173.592381a40.96 40.96 0 1 0-82.407619 0v173.592381A82.407619 82.407619 0 0 0 82.407619 1024h173.592381a40.96 40.96 0 1 0 0-82.407619zM40.96 296.96a40.96 40.96 0 0 0 40.96-40.96V82.407619h174.08a40.96 40.96 0 1 0 0-82.407619H82.407619A82.407619 82.407619 0 0 0 0 82.407619v173.592381a40.96 40.96 0 0 0 40.96 40.96z m682.666667 425.20381H301.83619V301.83619h420.815239z m82.407619 0V301.83619a82.407619 82.407619 0 0 0-83.870476-82.407619H301.83619A82.407619 82.407619 0 0 0 219.428571 301.83619v420.815239a82.407619 82.407619 0 0 0 82.407619 81.92h420.815239a82.407619 82.407619 0 0 0 81.92-82.407619z"  /></svg>